<svg id="Layer_1" data-name="Layer 1" xmlns="http://www.w3.org/2000/svg" xmlns:xlink="http://www.w3.org/1999/xlink" viewBox="0 0 800 800"><defs><style>.cls-1{fill:url(#linear-gradient);}.cls-2{fill:#fff;}.cls-3{fill:url(#linear-gradient-2);}</style><linearGradient id="linear-gradient" x1="791" y1="791" x2="-9" y2="-9" gradientUnits="userSpaceOnUse"><stop offset="0" stop-color="#3e106e"/><stop offset="0.5" stop-color="#120d55"/><stop offset="1" stop-color="#3e106e"/></linearGradient><linearGradient id="linear-gradient-2" x1="345.88" y1="651.36" x2="184.66" y2="490.14" gradientUnits="userSpaceOnUse"><stop offset="0" stop-color="#7269f7"/><stop offset="1" stop-color="#a76cf7"/></linearGradient></defs><title>icon</title><rect class="cls-1" width="800" height="800"/><circle class="cls-2" cx="264.5" cy="566.5" r="93.5"/><path class="cls-2" d="M574.77,224.25a35.1,35.1,0,0,1-35-35v-74h-199a12,12,0,0,0-12,12v35h154l117,114v268h37a12,12,0,0,0,12-12v-308Z" transform="translate(0 0)"/><path class="cls-2" d="M573.77,200.25H631l-67.22-68.9v58.9A10,10,0,0,0,573.77,200.25Z" transform="translate(0 0)"/><path class="cls-2" d="M560,272.25l-67.22-68.9v58.9a10,10,0,0,0,10,10Z" transform="translate(0 0)"/><path class="cls-2" d="M466.77,262.25v-75h-197a12,12,0,0,0-12,12V438.5c2.65-.16,5.31-.25,8-.25a131.46,131.46,0,0,1,85,31h167a12,12,0,0,1,12,12v1a12,12,0,0,1-12,12H373.7a132.19,132.19,0,0,1,15.82,122H565.75a12,12,0,0,0,12-12v-307h-76A35.1,35.1,0,0,1,466.77,262.25Zm-160,123a12,12,0,0,1,12-12h96a12,12,0,0,1,12,12v1a12,12,0,0,1-12,12h-96a12,12,0,0,1-12-12Zm222,48v1a12,12,0,0,1-12,12h-200a12,12,0,0,1-12-12v-1a12,12,0,0,1,12-12h200A12,12,0,0,1,528.77,433.25Z" transform="translate(0 0)"/><path class="cls-3" d="M265.27,456.75a114,114,0,1,0,114,114A114,114,0,0,0,265.27,456.75Zm61,115a15,15,0,0,1-15,15h-30v30a15,15,0,0,1-15,15h-2a15,15,0,0,1-15-15v-30h-30a15,15,0,0,1-15-15v-2a15,15,0,0,1,15-15h30v-30a15,15,0,0,1,15-15h2a15,15,0,0,1,15,15v30h30a15,15,0,0,1,15,15Z" transform="translate(0 0)"/></svg>